<svg xmlns="http://www.w3.org/2000/svg" data-name="Layer 1" viewBox="0 0 64 64"><circle cx="32" cy="24" r="22" fill="#e3fcfd"/><ellipse cx="32" cy="24" fill="#42eaf5" rx="22" ry="14"/><path fill="#e3fcfd" d="M52 14c-.13367 0-.26349.01483-.39587.02a21.9837 21.9837 0 0 1 0 19.96c.13238.00519.2622.02.39587.02a10 10 0 0 0 0-20zM12.39587 14.02C12.26349 14.01483 12.13367 14 12 14a10 10 0 0 0 0 20c.13367 0 .26349-.01483.39587-.02a21.9837 21.9837 0 0 1 0-19.96zM21.94681 46H42.05319A13.94681 13.94681 0 0 1 56 59.94681V62a0 0 0 0 1 0 0H8a0 0 0 0 1 0 0V59.94681A13.94681 13.94681 0 0 1 21.94681 46z"/><path fill="#007da1" d="M31.984,15.96782a2.00021,2.00021,0,0,0,.00009,4c7.66154,0,11.54,3.21143,12.00773,4.18018a2.00016,2.00016,0,0,0,3.99218-.18018C47.984,20.7061,41.75105,15.96782,31.984,15.96782Z"/><path fill="#007da1" d="M58.984,14.24107V3.96782a2.0002,2.0002,0,0,0-4,.00009v8.39487a11.92354,11.92354,0,0,0-2.2055-.35474c-9.07087-15.972-32.52471-15.96361-41.589,0-14.85729,1.43691-14.84617,22.48822,0,23.91956a24.1729,24.1729,0,0,0,7.953,8.30029A15.96162,15.96162,0,0,0,5.984,59.9146v2.05322a2.0001,2.0001,0,0,0,2,2h48a2.0001,2.0001,0,0,0,2-2V59.9146a15.96161,15.96161,0,0,0-13.1585-15.68671,24.1729,24.1729,0,0,0,7.953-8.30029C63.96445,35.189,68.03884,20.695,58.984,14.24107Zm-27,21.72675c-10.8413,0-20-5.49512-20-12s9.1587-12,20-12,20,5.49512,20,12S42.82527,35.96782,31.984,35.96782Zm0-32a19.95937,19.95937,0,0,1,15.91138,7.93262c-8.20007-5.17592-23.62318-5.17553-31.82275,0A19.95935,19.95935,0,0,1,31.984,3.96782ZM9.1783,31.46a8.02315,8.02315,0,0,1,.00049-14.98487A24.24664,24.24664,0,0,0,9.1783,31.46ZM42.03719,47.96782a11.96144,11.96144,0,0,1,11.94677,12h-44a11.96146,11.96146,0,0,1,11.94678-12Zm-10.05323-4A19.95935,19.95935,0,0,1,16.07259,36.0352c8.20007,5.17592,23.62318,5.17553,31.82275,0A19.95937,19.95937,0,0,1,31.984,43.96782ZM54.78914,31.4605a24.24671,24.24671,0,0,0,.00049-14.98487A8.02315,8.02315,0,0,1,54.78914,31.4605Z"/><path fill="#007da1" d="M28.984 55.96782h7a2 2 0 1 0 0-4h-7A2.00021 2.00021 0 0 0 28.984 55.96782zM43.984 55.96782a2.00022 2.00022 0 0 0-.00008-4A2.00022 2.00022 0 0 0 43.984 55.96782zM23.984 16.96782a2.0002 2.0002 0 0 0 .00009 4A2.0002 2.0002 0 0 0 23.984 16.96782z"/></svg>